<mxfile host="app.diagrams.net" modified="2022-10-19T02:38:13.043Z" agent="5.0 (X11; Linux x86_64) AppleWebKit/537.36 (KHTML, like Gecko) Chrome/80.0.3987.116 Safari/537.36" etag="rgNvGZxleigRdeXTj2eU" version="20.4.0" type="github">
  <diagram id="0tg5IIPubemhuqr9GwKv" name="第 1 页">
    <mxGraphModel dx="1422" dy="1975" grid="1" gridSize="10" guides="1" tooltips="1" connect="1" arrows="1" fold="1" page="1" pageScale="1" pageWidth="827" pageHeight="1169" math="0" shadow="0">
      <root>
        <mxCell id="0" />
        <mxCell id="1" parent="0" />
        <mxCell id="0ek_3PKIBDXSsCbuwrNs-6" style="edgeStyle=orthogonalEdgeStyle;rounded=0;orthogonalLoop=1;jettySize=auto;html=1;exitX=0.5;exitY=0;exitDx=0;exitDy=0;entryX=0;entryY=0.5;entryDx=0;entryDy=0;" edge="1" parent="1" source="0ek_3PKIBDXSsCbuwrNs-3" target="0ek_3PKIBDXSsCbuwrNs-5">
          <mxGeometry relative="1" as="geometry" />
        </mxCell>
        <mxCell id="0ek_3PKIBDXSsCbuwrNs-13" style="edgeStyle=orthogonalEdgeStyle;rounded=0;orthogonalLoop=1;jettySize=auto;html=1;entryX=0;entryY=0.5;entryDx=0;entryDy=0;exitX=0.5;exitY=1;exitDx=0;exitDy=0;" edge="1" parent="1" source="0ek_3PKIBDXSsCbuwrNs-3" target="0ek_3PKIBDXSsCbuwrNs-12">
          <mxGeometry relative="1" as="geometry" />
        </mxCell>
        <mxCell id="0ek_3PKIBDXSsCbuwrNs-3" value="Dalivk与ART" style="rounded=1;whiteSpace=wrap;html=1;fillColor=#e1d5e7;strokeColor=#9673a6;" vertex="1" parent="1">
          <mxGeometry x="130" y="180" width="120" height="60" as="geometry" />
        </mxCell>
        <mxCell id="0ek_3PKIBDXSsCbuwrNs-8" style="edgeStyle=orthogonalEdgeStyle;rounded=0;orthogonalLoop=1;jettySize=auto;html=1;entryX=0;entryY=0.5;entryDx=0;entryDy=0;" edge="1" parent="1" source="0ek_3PKIBDXSsCbuwrNs-5" target="0ek_3PKIBDXSsCbuwrNs-7">
          <mxGeometry relative="1" as="geometry" />
        </mxCell>
        <mxCell id="0ek_3PKIBDXSsCbuwrNs-5" value="ART(Android Runtime)" style="rounded=1;whiteSpace=wrap;html=1;" vertex="1" parent="1">
          <mxGeometry x="270" y="80" width="150" height="60" as="geometry" />
        </mxCell>
        <mxCell id="0ek_3PKIBDXSsCbuwrNs-7" value="提供了AOT(Ahead Of Time)&lt;br&gt;运行应用程序机制" style="rounded=1;whiteSpace=wrap;html=1;" vertex="1" parent="1">
          <mxGeometry x="520" y="-110" width="160" height="60" as="geometry" />
        </mxCell>
        <mxCell id="0ek_3PKIBDXSsCbuwrNs-10" value="AOT：在运行前将中间静态代码编译成本地代码，以便节省jit的时间" style="text;html=1;strokeColor=none;fillColor=none;align=center;verticalAlign=middle;whiteSpace=wrap;rounded=0;" vertex="1" parent="1">
          <mxGeometry x="500" y="-160" width="190" height="60" as="geometry" />
        </mxCell>
        <mxCell id="0ek_3PKIBDXSsCbuwrNs-15" value="" style="edgeStyle=orthogonalEdgeStyle;rounded=0;orthogonalLoop=1;jettySize=auto;html=1;" edge="1" parent="1" source="0ek_3PKIBDXSsCbuwrNs-12" target="0ek_3PKIBDXSsCbuwrNs-14">
          <mxGeometry relative="1" as="geometry" />
        </mxCell>
        <mxCell id="0ek_3PKIBDXSsCbuwrNs-20" style="edgeStyle=orthogonalEdgeStyle;rounded=0;orthogonalLoop=1;jettySize=auto;html=1;entryX=0;entryY=0.5;entryDx=0;entryDy=0;" edge="1" parent="1" source="0ek_3PKIBDXSsCbuwrNs-12" target="0ek_3PKIBDXSsCbuwrNs-16">
          <mxGeometry relative="1" as="geometry" />
        </mxCell>
        <mxCell id="0ek_3PKIBDXSsCbuwrNs-21" style="edgeStyle=orthogonalEdgeStyle;rounded=0;orthogonalLoop=1;jettySize=auto;html=1;entryX=0;entryY=0.5;entryDx=0;entryDy=0;" edge="1" parent="1" source="0ek_3PKIBDXSsCbuwrNs-12" target="0ek_3PKIBDXSsCbuwrNs-19">
          <mxGeometry relative="1" as="geometry" />
        </mxCell>
        <mxCell id="0ek_3PKIBDXSsCbuwrNs-22" style="edgeStyle=orthogonalEdgeStyle;rounded=0;orthogonalLoop=1;jettySize=auto;html=1;entryX=0;entryY=0.5;entryDx=0;entryDy=0;" edge="1" parent="1" source="0ek_3PKIBDXSsCbuwrNs-12" target="0ek_3PKIBDXSsCbuwrNs-17">
          <mxGeometry relative="1" as="geometry" />
        </mxCell>
        <mxCell id="0ek_3PKIBDXSsCbuwrNs-23" style="edgeStyle=orthogonalEdgeStyle;rounded=0;orthogonalLoop=1;jettySize=auto;html=1;entryX=0;entryY=0.5;entryDx=0;entryDy=0;" edge="1" parent="1" source="0ek_3PKIBDXSsCbuwrNs-12" target="0ek_3PKIBDXSsCbuwrNs-18">
          <mxGeometry relative="1" as="geometry" />
        </mxCell>
        <mxCell id="0ek_3PKIBDXSsCbuwrNs-12" value="Dalivk组成" style="rounded=1;whiteSpace=wrap;html=1;" vertex="1" parent="1">
          <mxGeometry x="270" y="280" width="150" height="60" as="geometry" />
        </mxCell>
        <mxCell id="0ek_3PKIBDXSsCbuwrNs-14" value="运行数据区" style="whiteSpace=wrap;html=1;rounded=1;" vertex="1" parent="1">
          <mxGeometry x="520" y="280" width="120" height="60" as="geometry" />
        </mxCell>
        <mxCell id="0ek_3PKIBDXSsCbuwrNs-16" value="类装载子系统" style="rounded=1;whiteSpace=wrap;html=1;" vertex="1" parent="1">
          <mxGeometry x="520" y="140" width="120" height="60" as="geometry" />
        </mxCell>
        <mxCell id="0ek_3PKIBDXSsCbuwrNs-17" value="执行引擎" style="rounded=1;whiteSpace=wrap;html=1;" vertex="1" parent="1">
          <mxGeometry x="520" y="350" width="120" height="60" as="geometry" />
        </mxCell>
        <mxCell id="0ek_3PKIBDXSsCbuwrNs-18" value="本地方法区" style="rounded=1;whiteSpace=wrap;html=1;" vertex="1" parent="1">
          <mxGeometry x="520" y="420" width="120" height="60" as="geometry" />
        </mxCell>
        <mxCell id="0ek_3PKIBDXSsCbuwrNs-19" value="垃圾回收子系统" style="rounded=1;whiteSpace=wrap;html=1;" vertex="1" parent="1">
          <mxGeometry x="520" y="210" width="120" height="60" as="geometry" />
        </mxCell>
      </root>
    </mxGraphModel>
  </diagram>
</mxfile>
